<svg xmlns="http://www.w3.org/2000/svg" viewBox="0 0 643.58 194.35"><defs><style>.cls-1{fill:#ba2225;}</style></defs><title>logotyp_alternatywne_red</title><g id="Layer_2" data-name="Layer 2"><g id="Layer_1-2" data-name="Layer 1"><path class="cls-1" d="M159.14,44.45h-8.33q3.31-4.1,6.55-8.27h1.78Zm0,10.33h-16.9q3.48-4.11,6.9-8.27h10Zm0,10.32q-12.9.08-25.82-.13c2.41-2.68,4.79-5.4,7.14-8.12h18.68Zm0,10.34a281.8,281.8,0,0,1-34.5-1Q127.87,71,131,67.55c9.37-.37,18.77-.49,28.15-.37Zm0,10.34a326.65,326.65,0,0,1-44-1.56q2.67-2.68,5.3-5.41a289.09,289.09,0,0,1,38.71-1.3Zm0,10.34q-27.15.09-54.27-1.87c1.62-1.55,3.24-3.09,4.83-4.65a458.48,458.48,0,0,1,49.44-1.75Zm0,10.32q-32.64-.6-65.27-2c1.57-1.4,3.13-2.82,4.68-4.24q30.28-1.52,60.59-2Zm0,10.35q-15.51.19-31-.42a958,958,0,0,0-113.67.42v-8.27q14.15-.19,28.28.39a599.69,599.69,0,0,0,94.39-.39h22Zm0,10.33q-17.56.21-35.14-.46a960,960,0,0,0-109.54.46v-8.27q15.51-.21,31,.41a536,536,0,0,0,89.14-.41h24.52Zm0,10.32q-20.83.18-41.66-.33-51.49-1.65-103,.33v-8.26q17.58-.23,35.15.45a451.63,451.63,0,0,0,81.23-.45h28.3Zm0,10.34q-25.74.14-51.45-.24l-93.23.24v-8.26q54.44,2.43,108.89,0h35.79Zm0,11.36H14.46v-9.29q25.73-.14,51.45.25l93.23-.25Zm-144.68-61q30.32.48,60.59,2l4.67,4.24q-32.59,1.43-65.26,2Zm0-10.33A458.29,458.29,0,0,1,63.9,89.6l4.83,4.65Q41.66,96.2,14.46,96.12Zm0-10.34a289.29,289.29,0,0,1,38.72,1.3L49,74.39a281.73,281.73,0,0,1-34.5,1V67.18q14.15-.2,28.28.38L40.29,65q-12.9.19-25.83.13V56.85H33.15l-1.78-2.07H14.46V46.51h10l-1.68-2.06H14.46V36.18h1.79l-1.79-2.32V14.48H137.25Q130.59,19,124,23.78a670.48,670.48,0,0,0-74.48,0l2.82,2.06a573,573,0,0,0,68.85,0q-5,3.64-9.8,7.42a435,435,0,0,0-49.25,0l5.18,4.07c13,.54,25.94.54,38.89,0-2.16,1.72-4.31,3.45-6.43,5.2q-13-.31-26,0l7.19,6H92.63c-1.62,1.38-3.22,2.77-4.83,4.18h-2l1,.86Q70.09,68.28,54.64,84.39a291.43,291.43,0,0,1-40.18,1.39ZM0,173.62H173.6V0H0Z"/><path class="cls-1" d="M629.47,118.06a11.86,11.86,0,1,1,11.86-11.85,11.85,11.85,0,0,1-11.86,11.85m0-26a14.12,14.12,0,1,0,14.11,14.12,14.11,14.11,0,0,0-14.11-14.12"/><path class="cls-1" d="M630.52,105.24h-3.6v-5h3.6a2.59,2.59,0,0,1,0,5m2.23,1.28a4.23,4.23,0,0,0,2.54-5.42,4.19,4.19,0,0,0-3-2.69h-8.52v15.07h3.16v-6.59h2.55l3.33,6.59h3.47Z"/><polygon class="cls-1" points="343.4 0.02 343.4 77.25 328.03 77.25 328.03 44 310.54 44 310.54 77.25 295.6 77.25 295.6 0.02 310.54 0.02 310.54 29.01 328.03 29.01 328.03 0.02 343.4 0.02"/><polygon class="cls-1" points="288.36 0.02 288.36 14.67 276.73 14.67 276.73 77.25 261.51 77.25 261.51 14.67 249.68 14.67 249.68 0.02 288.36 0.02"/><path class="cls-1" d="M230.05,56.63a6.89,6.89,0,0,1-6.3,6.89h-7.42V43.75h7.42a6.87,6.87,0,0,1,6.3,6.87ZM216.33,13.14h4.92a3.25,3.25,0,0,1,.44,0,9.11,9.11,0,0,1,5.19,2.15,7.73,7.73,0,0,1,2.84,5.32v4.28a7.73,7.73,0,0,1-2.84,5.32,9.19,9.19,0,0,1-5.19,2.16l-.44,0h-4.92Zm28,33.9a14.16,14.16,0,0,0-9.46-9.24,13.25,13.25,0,0,0,7.44-6.87A20.78,20.78,0,0,0,241,8.8,23.52,23.52,0,0,0,221.69,0H201.53V77.25h21.36a24.37,24.37,0,0,0,16.76-6.35A23.4,23.4,0,0,0,244.38,47"/><path class="cls-1" d="M286.05,132.42v41.22h-13.8V140a4.73,4.73,0,1,0-9.46,0v33.64h-14V140a4.69,4.69,0,0,0-9.38-.21v33.85H226.32V122.23h13.07v6.4a22.71,22.71,0,0,1,9.67-6.06,11.81,11.81,0,0,1,10,2.13,15.27,15.27,0,0,1,3.72,3.93,22.65,22.65,0,0,1,9.67-6.06,11.86,11.86,0,0,1,10,2.13,9.43,9.43,0,0,1,3.56,7.72"/><path class="cls-1" d="M503.25,168.07a21.3,21.3,0,0,1-26.54,1.4V156.14a12.12,12.12,0,0,0,14.34,2.28,7.79,7.79,0,0,0,2.41-10.35q-6.15-8.74-12.49-17.39a23.09,23.09,0,0,1,.81-28.66,21.3,21.3,0,0,1,26.54-1.4V114A12.12,12.12,0,0,0,494,111.67,7.78,7.78,0,0,0,491.55,122c4.23,5.76,8.38,11.56,12.5,17.39a21.16,21.16,0,0,1-.8,28.67"/><rect class="cls-1" x="201.38" y="96.41" width="15.4" height="77.23"/><rect class="cls-1" x="592.39" y="92.35" width="13.94" height="81.29"/><path class="cls-1" d="M320.9,154.1a16.39,16.39,0,0,1-1.95,4.83,8.18,8.18,0,0,1-1.7,2,4,4,0,0,1-2.38,1,4.09,4.09,0,0,1-2.82-1.13,8.32,8.32,0,0,1-1.62-2,17.39,17.39,0,0,1-1.86-4.76,28.17,28.17,0,0,1-.47-10.19,20.38,20.38,0,0,1,1.91-6.53,8.82,8.82,0,0,1,2.41-3,4.16,4.16,0,0,1,1.88-.8,3.79,3.79,0,0,1,2.56.64,8.33,8.33,0,0,1,2.54,3,20.64,20.64,0,0,1,2,6.65,28.11,28.11,0,0,1-.5,10.38m12.77-19a30.87,30.87,0,0,0-2.42-6.07,18.32,18.32,0,0,0-2.81-4,11.71,11.71,0,0,0-14.14-2.14,24.42,24.42,0,0,0-6.41,6.29v-6.93H294.56v72.12h13.33V166.44a22.47,22.47,0,0,0,7,6.78,12.15,12.15,0,0,0,13.8-2.55,18.74,18.74,0,0,0,1.95-2.64,26.66,26.66,0,0,0,1.68-3.28,33,33,0,0,0,1.34-3.81,48.77,48.77,0,0,0,0-25.85"/><polygon class="cls-1" points="448.33 122.22 448.33 133.09 442.98 133.09 442.98 173.64 428.19 173.64 428.19 133.09 422.92 133.09 422.92 122.22 428.19 122.22 428.19 107.43 442.98 107.43 442.98 122.22 448.33 122.22"/><polygon class="cls-1" points="539.03 122.22 539.03 133.09 533.7 133.09 533.7 173.64 518.88 173.64 518.88 133.09 513.63 133.09 513.63 122.22 518.88 122.22 518.88 107.43 533.7 107.43 533.7 122.22 539.03 122.22"/><path class="cls-1" d="M419.22,121.18v13.43a12.22,12.22,0,0,0-11.57,12.8v26.23H394.52V122.23h13.13v7.28a12.74,12.74,0,0,1,11.57-8.33"/><path class="cls-1" d="M569.57,154a16.89,16.89,0,0,1-1.9,4.8,8,8,0,0,1-1.65,2,4.26,4.26,0,0,1-2.32,1.05,4.44,4.44,0,0,1-3.51-1.62,10,10,0,0,1-1.64-2.49,19,19,0,0,1-1.59-5,29.17,29.17,0,0,1-.34-7.86,21.66,21.66,0,0,1,2-7.6,10,10,0,0,1,1.77-2.51,4.22,4.22,0,0,1,3.28-1.38,3.9,3.9,0,0,1,1.94.75,8.43,8.43,0,0,1,2.46,3,20.48,20.48,0,0,1,2,6.59,28.39,28.39,0,0,1-.49,10.27m.61-31.81v6.94a24.57,24.57,0,0,0-6.48-6.34,11.72,11.72,0,0,0-13.64,1.77,17.42,17.42,0,0,0-2.48,3.13,28.63,28.63,0,0,0-3,6.87,46.61,46.61,0,0,0-1.9,13,49.53,49.53,0,0,0,.88,9.81,37.69,37.69,0,0,0,2.07,7.09,24.06,24.06,0,0,0,2.66,4.88,12,12,0,0,0,15.42,3.6,22.64,22.64,0,0,0,6.48-6.49v7.2h13.33V122.22Z"/><path class="cls-1" d="M372.25,151.68a18.17,18.17,0,0,1-2.4,6.78,8.22,8.22,0,0,1-2.94,2.86,4.55,4.55,0,0,1-2.1.54,4.74,4.74,0,0,1-2.73-.87,8.11,8.11,0,0,1-1.7-1.61,14,14,0,0,1-2-3.71,20.66,20.66,0,0,1-1-4.11,25.3,25.3,0,0,1,.1-8.46,18.77,18.77,0,0,1,1.77-5.36,10.12,10.12,0,0,1,1.89-2.61,5.5,5.5,0,0,1,3.19-1.72,4.57,4.57,0,0,1,3.11.77,7.71,7.71,0,0,1,2,1.86,15,15,0,0,1,2.35,4.87,25.27,25.27,0,0,1,.59,10.77m14-6.57a32.12,32.12,0,0,0-2.24-9.8,27.11,27.11,0,0,0-5.33-8.5,21.88,21.88,0,0,0-5.27-4.12,18,18,0,0,0-8.57-2.27,18.48,18.48,0,0,0-11.74,4.38,25.85,25.85,0,0,0-7.19,9.77,32.83,32.83,0,0,0-2.24,7.82,34.21,34.21,0,0,0,.07,10.83,29.8,29.8,0,0,0,5.54,13.24,22.72,22.72,0,0,0,6.06,5.59,17.48,17.48,0,0,0,16.9,1.1,21,21,0,0,0,6.18-4.46,28.55,28.55,0,0,0,7.06-13.42,33.67,33.67,0,0,0,.77-10.16"/></g></g></svg>